<?xml version="1.0" encoding="utf-8"?>
<svg xmlns="http://www.w3.org/2000/svg" xmlns:svg="http://www.w3.org/2000/svg" version="1.1" viewBox="0 0 1400 440">
	<title>The titlepage for the Standard Ebooks edition of The Second Mrs. Tanqueray, by Arthur W. Pinero</title>
	<g aria-label="THE SECOND">
		<path d="m 367.66739,68.245613 h 18.33918 V 130 h 17.59065 V 68.245613 H 421.9364 V 52.807016 h -54.26901 z"/>
		<path d="m 450.86184,99.029239 h 24.88889 V 130 h 17.59064 V 52.807016 H 475.75073 V 83.590642 H 450.86184 V 52.807016 H 433.27119 V 130 h 17.59065 z"/>
		<path d="M 553.70687,52.807016 H 509.54313 V 130 h 44.16374 v -15.4386 h -26.5731 V 99.029239 h 25.45029 V 83.590642 H 527.13377 V 68.245613 h 26.5731 z"/>
		<path d="m 626.0212,51.403507 c -12.44444,0 -25.16959,9.169591 -25.16959,23.578948 0,8.046784 5.4269,15.251462 14.69006,19.836258 9.16959,4.584795 17.40351,7.111107 17.40351,12.725147 0,7.20468 -7.29825,7.57895 -11.1345,7.57895 -8.60819,0 -18.90059,-8.70176 -18.90059,-8.70176 l -8.79532,14.78363 c 0,0 10.94737,10.19883 29.00585,10.19883 15.06433,0 29.09941,-6.45614 29.09941,-24.88889 0,-10.105264 -9.45029,-17.40351 -18.05848,-21.052632 -8.79532,-3.742691 -16.09356,-6.83041 -16.09356,-11.134504 0,-4.210526 3.18128,-6.923976 9.16959,-6.923976 7.95321,0 15.62573,5.333333 15.62573,5.333333 l 7.11111,-14.035088 c 0,0 -9.91813,-7.298246 -23.95322,-7.298246 z"/>
		<path d="M 709.606,52.807016 H 665.44225 V 130 H 709.606 V 114.5614 H 683.0329 V 99.029239 h 25.45029 V 83.590642 H 683.0329 V 68.245613 h 26.5731 z"/>
		<path d="m 765.79458,114.09357 c -17.68421,0 -25.45029,-12.35088 -25.45029,-22.736846 0,-10.292397 7.76608,-22.643275 25.45029,-22.643275 8.98246,0 15.1579,4.77193 15.1579,4.77193 l 7.48538,-14.97076 c 0,0 -8.60819,-7.111112 -25.35673,-7.111112 -21.89474,0 -41.82456,17.964913 -41.82456,40.140352 0,22.081871 20.02339,39.859651 41.82456,39.859651 16.74854,0 25.35673,-7.11111 25.35673,-7.11111 l -7.48538,-14.97076 c 0,0 -6.17544,4.77193 -15.1579,4.77193 z"/>
		<path d="m 796.79752,91.356724 c 0,22.549706 16.09357,40.046786 38.92398,40.046786 22.17544,0 38.83041,-17.49708 38.83041,-40.046786 0,-22.549708 -17.40351,-39.953217 -38.83041,-39.953217 -21.23976,0 -38.92398,17.403509 -38.92398,39.953217 z m 18.99416,0 c 0,-11.508772 6.36257,-23.017544 19.92982,-23.017544 13.66082,0 19.83626,11.508772 19.83626,23.017544 0,11.508776 -5.80117,23.017546 -19.83626,23.017546 -14.40936,0 -19.92982,-11.50877 -19.92982,-23.017546 z"/>
		<path d="m 904.90423,82.093566 h 0.18714 L 935.78143,130 h 17.59064 V 52.807016 h -17.59064 v 47.906434 h -0.18714 L 904.90423,52.807016 H 887.31359 V 130 h 17.59064 z"/>
		<path d="M 969.61626,52.807016 V 130 h 22.36258 c 21.23976,0 38.92396,-16.09357 38.92396,-38.643276 0,-22.45614 -17.7778,-38.549708 -38.92396,-38.549708 z M 987.20691,114.2807 V 68.526315 h 2.71345 c 13.09944,0 21.98834,10.011696 21.98834,22.923977 -0.094,12.912278 -8.9825,22.830408 -21.98834,22.830408 z"/>
	</g>
	<g aria-label="MRS. TANQUERAY">
		<path d="m 297.05116,230 h 17.59065 l -6.92398,-77.19298 h -18.71345 l -17.12281,44.53801 -17.12281,-44.53801 H 236.04531 L 229.12134,230 h 17.59064 l 3.64912,-45.75439 h 0.46784 l 15.81287,45.28655 h 10.47953 l 15.81286,-45.28655 h 0.46784 z"/>
		<path d="M 326.68859,152.80702 V 230 h 17.59064 V 199.49708 L 367.85818,230 h 22.36258 l -26.5731,-31.90643 c 9.45029,-2.99416 15.81286,-10.76024 15.81286,-22.36258 0,-15.15789 -10.8538,-22.92397 -25.16959,-22.92397 z m 17.59064,34.24561 V 166.8421 h 2.05848 c 6.64328,0 14.5965,0.46784 14.5965,10.10527 0,9.63742 -7.95322,10.10526 -14.5965,10.10526 z"/>
		<path d="m 427.20175,151.40351 c -12.44444,0 -25.16959,9.16959 -25.16959,23.57895 0,8.04678 5.4269,15.25146 14.69006,19.83625 9.16959,4.5848 17.40351,7.11111 17.40351,12.72515 0,7.20468 -7.29825,7.57895 -11.1345,7.57895 -8.60819,0 -18.90059,-8.70176 -18.90059,-8.70176 l -8.79532,14.78363 c 0,0 10.94737,10.19883 29.00585,10.19883 15.06433,0 29.09941,-6.45614 29.09941,-24.88889 0,-10.10526 -9.45029,-17.40351 -18.05848,-21.05263 -8.79532,-3.74269 -16.09356,-6.83041 -16.09356,-11.13451 0,-4.21052 3.18128,-6.92397 9.16959,-6.92397 7.95321,0 15.62573,5.33333 15.62573,5.33333 l 7.11111,-14.03509 c 0,0 -9.91813,-7.29824 -23.95322,-7.29824 z"/>
		<path d="m 477.28947,209.97661 c -5.89474,0 -10.66667,4.77193 -10.66667,10.76023 0,5.89474 4.77193,10.66667 10.66667,10.66667 5.9883,0 10.76023,-4.77193 10.76023,-10.66667 0,-5.9883 -4.77193,-10.76023 -10.76023,-10.76023 z"/>
		<path d="m 525.48538,168.24561 h 18.33918 V 230 h 17.59064 v -61.75439 h 18.33919 v -15.43859 h -54.26901 z"/>
		<path d="m 625.72514,152.80702 h -16.2807 L 578.28654,230 h 18.90059 l 5.7076,-15.4386 h 29.38012 L 637.98245,230 h 18.90059 z m 0.5614,46.31579 h -17.4035 l 8.60818,-22.45614 h 0.18714 z"/>
		<path d="m 682.39327,182.09357 h 0.18714 L 713.27046,230 h 17.59065 v -77.19298 h -17.59065 v 47.90643 h -0.18713 L 682.39327,152.80702 H 664.80263 V 230 h 17.59064 z"/>
		<path d="m 765.91226,246.18713 c 0,0 4.11696,-4.30409 11.4152,-4.30409 11.88304,0 16.65497,7.29825 28.16375,7.29825 12.25731,0 17.21637,-10.47954 17.21637,-10.47954 l -5.52047,-11.88304 c 0,0 -3.64912,5.05264 -11.60234,5.05264 -4.58479,0 -10.19883,-1.77778 -11.97661,-1.77778 v -0.37427 c 16,-4.8655 26.85381,-19.92983 26.85381,-38.36258 0,-22.5497 -16.93568,-39.95321 -38.36258,-39.95321 -21.23976,0 -38.45614,17.40351 -38.45614,39.95321 0,19.83626 12.07018,35.7427 30.40936,39.29825 v 0.37427 c -5.61404,0 -12.35088,8.79532 -12.35088,8.79532 z m -3.27486,-54.83041 c 0,-11.50877 5.89474,-22.269 19.46199,-22.269 13.66082,0 19.36842,10.76023 19.36842,22.269 0,11.50878 -5.33333,22.26901 -19.36842,22.26901 -14.40935,0 -19.46199,-10.76023 -19.46199,-22.26901 z"/>
		<path d="m 892.56726,152.80702 h -17.59064 v 44.63158 c 0,12.91228 -3.92983,16.65497 -12.53802,16.65497 -8.60818,0 -12.53801,-3.74269 -12.53801,-16.65497 v -44.63158 h -17.59064 v 49.77777 c 0,19.08772 10.47953,28.81872 30.12865,28.81872 19.64913,0 30.12866,-9.731 30.12866,-28.81872 z"/>
		<path d="M 952.03656,152.80702 H 907.87282 V 230 h 44.16374 v -15.4386 h -26.5731 v -15.53216 h 25.45029 v -15.4386 h -25.45029 v -15.34503 h 26.5731 z"/>
		<path d="M 967.14912,152.80702 V 230 h 17.59065 V 199.49708 L 1008.3187,230 h 22.3626 l -26.5731,-31.90643 c 9.4503,-2.99416 15.8129,-10.76024 15.8129,-22.36258 0,-15.15789 -10.8538,-22.92397 -25.16964,-22.92397 z m 17.59065,34.24561 V 166.8421 h 2.05848 c 6.64327,0 14.59645,0.46784 14.59645,10.10527 0,9.63742 -7.95318,10.10526 -14.59645,10.10526 z"/>
		<path d="m 1078.4225,152.80702 h -16.2807 L 1030.9839,230 h 18.9006 l 5.7076,-15.4386 h 29.3801 L 1090.6798,230 h 18.9006 z m 0.5614,46.31579 h -17.4035 l 8.6082,-22.45614 h 0.1871 z"/>
		<path d="m 1100.6725,152.80702 28.4445,42.5731 V 230 h 17.5906 v -34.61988 l 28.4445,-42.5731 h -21.1462 l -16.0936,24.70175 -16.0936,-24.70175 z"/>
	</g>
	<g aria-label="ARTHUR W. PINERO">
		<path d="M 340.98794,332.10526 H 328.77742 L 305.40899,390 h 14.17544 l 4.2807,-11.57895 h 22.03509 L 350.18092,390 h 14.17544 z m 0.42105,34.73685 H 328.35636 L 334.8125,350 h 0.14035 z"/>
		<path d="M 371.54606,332.10526 V 390 h 13.19298 V 367.12281 L 402.42325,390 h 16.77193 L 399.26536,366.07018 C 406.35307,363.82456 411.125,358 411.125,349.29825 c 0,-11.36842 -8.14035,-17.19299 -18.87719,-17.19299 z m 13.19298,25.68421 v -15.15789 h 1.54386 c 4.98246,0 10.94737,0.35088 10.94737,7.57895 0,7.22807 -5.96491,7.57894 -10.94737,7.57894 z"/>
		<path d="m 420.45724,343.68421 h 13.75438 V 390 h 13.19299 v -46.31579 h 13.75438 v -11.57895 h -40.70175 z"/>
		<path d="m 484.10307,366.77193 h 18.66667 V 390 h 13.19298 v -57.89474 h -13.19298 v 23.08772 H 484.10307 V 332.10526 H 470.91009 V 390 h 13.19298 z"/>
		<path d="m 573.85526,332.10526 h -13.19298 v 33.47369 c 0,9.68421 -2.94737,12.49123 -9.40351,12.49123 -6.45614,0 -9.40351,-2.80702 -9.40351,-12.49123 v -33.47369 h -13.19298 v 37.33334 c 0,14.31579 7.85965,21.61403 22.59649,21.61403 14.73684,0 22.59649,-7.29824 22.59649,-21.61403 z"/>
		<path d="M 586.58443,332.10526 V 390 h 13.19299 V 367.12281 L 617.46163,390 h 16.77193 l -19.92983,-23.92982 c 7.08772,-2.24562 11.85965,-8.07018 11.85965,-16.77193 0,-11.36842 -8.14035,-17.19299 -18.87719,-17.19299 z m 13.19299,25.68421 v -15.15789 h 1.54386 c 4.98245,0 10.94736,0.35088 10.94736,7.57895 0,7.22807 -5.96491,7.57894 -10.94736,7.57894 z"/>
		<path d="m 704.4649,390 h 14.59649 l 16.49123,-57.89474 h -14.5965 l -9.89473,39.7193 h -0.35088 l -10.52631,-39.7193 h -9.96492 l -10.52631,39.7193 h -0.35088 l -9.89474,-39.7193 H 654.78069 L 671.27191,390 h 14.66667 l 9.26316,-32.49123 z"/>
		<path d="m 747.19408,374.98246 c -4.42105,0 -8,3.57894 -8,8.07017 0,4.42105 3.57895,8 8,8 4.49123,0 8.07018,-3.57895 8.07018,-8 0,-4.49123 -3.57895,-8.07017 -8.07018,-8.07017 z"/>
		<path d="M 792.91665,332.10526 V 390 h 13.19298 v -21.47368 h 7.92982 c 11.29825,0 19.78948,-6.66667 19.78948,-18.5965 0,-11.99999 -8.49123,-17.82456 -19.78948,-17.82456 z M 806.10963,358 v -15.36842 h 3.7193 c 5.19298,0 10.10526,1.75439 10.10526,7.7193 0,5.89473 -4.91228,7.64912 -10.10526,7.64912 z"/>
		<path d="M 857.84761,332.10526 H 844.65462 V 390 h 13.19299 z"/>
		<path d="m 884.50331,354.07018 h 0.14035 L 907.6612,390 h 13.19298 V 332.10526 H 907.6612 v 35.92983 h -0.14035 L 884.50331,332.10526 H 871.31032 V 390 h 13.19299 z"/>
		<path d="M 967.41006,332.10526 H 934.28725 V 390 h 33.12281 v -11.57895 h -19.92982 v -11.64912 h 19.08771 v -11.57895 h -19.08771 v -11.50877 h 19.92982 z"/>
		<path d="M 979.99453,332.10526 V 390 h 13.19298 V 367.12281 L 1010.8717,390 h 16.772 l -19.9299,-23.92982 c 7.0877,-2.24562 11.8597,-8.07018 11.8597,-16.77193 0,-11.36842 -8.1404,-17.19299 -18.8772,-17.19299 z m 13.19298,25.68421 v -15.15789 h 1.54386 c 4.98246,0 10.94733,0.35088 10.94733,7.57895 0,7.22807 -5.96487,7.57894 -10.94733,7.57894 z"/>
		<path d="m 1032.6996,361.01754 c 0,16.91228 12.0701,30.03509 29.1929,30.03509 16.6316,0 29.1228,-13.12281 29.1228,-30.03509 0,-16.91228 -13.0526,-29.96491 -29.1228,-29.96491 -15.9298,0 -29.1929,13.05263 -29.1929,29.96491 z m 14.2456,0 c 0,-8.63157 4.7719,-17.26315 14.9473,-17.26315 10.2456,0 14.8772,8.63158 14.8772,17.26315 0,8.63158 -4.3509,17.26316 -14.8772,17.26316 -10.807,0 -14.9473,-8.63158 -14.9473,-17.26316 z"/>
	</g>
</svg>
